<svg width="150" height="150" viewBox="0 0 150 150" fill="none" xmlns="http://www.w3.org/2000/svg">
<path d="M20.4492 46.7148C20.4753 46.7148 20.5339 46.7214 20.625 46.7344C20.7161 46.7344 20.8073 46.7474 20.8984 46.7734C21.0026 46.7995 21.0938 46.832 21.1719 46.8711C21.25 46.9102 21.2891 46.9688 21.2891 47.0469C21.2891 47.151 21.237 47.3203 21.1328 47.5547C21.0417 47.776 20.918 48.0495 20.7617 48.375C20.6185 48.7005 20.4492 49.0716 20.2539 49.4883C20.0716 49.8919 19.8828 50.3151 19.6875 50.7578C18.776 52.8281 17.8971 54.8854 17.0508 56.9297C16.2044 58.974 15.3581 61.0508 14.5117 63.1602C15.7487 63.1081 16.888 62.8672 17.9297 62.4375C18.9844 61.9948 19.9414 61.4219 20.8008 60.7188C21.6602 60.0026 22.4154 59.1888 23.0664 58.2773C23.7305 57.3659 24.2839 56.4089 24.7266 55.4062C25.1693 54.3906 25.5013 53.362 25.7227 52.3203C25.957 51.2786 26.0742 50.276 26.0742 49.3125C26.0742 48.6224 25.9701 48.0039 25.7617 47.457C25.5664 46.8971 25.2799 46.4219 24.9023 46.0312C24.5247 45.6406 24.069 45.3411 23.5352 45.1328C23.0143 44.9115 22.4219 44.8008 21.7578 44.8008C20.1172 44.8008 18.6133 45.0742 17.2461 45.6211C15.8919 46.168 14.7266 46.9362 13.75 47.9258C12.7865 48.9023 12.0312 50.0807 11.4844 51.4609C10.9505 52.8411 10.6836 54.3646 10.6836 56.0312C10.6836 56.2526 10.6315 56.4479 10.5273 56.6172C10.4232 56.7865 10.2474 56.8711 10 56.8711C9.83073 56.8711 9.60938 56.806 9.33594 56.6758C9.0625 56.5326 8.78906 56.3503 8.51562 56.1289C8.25521 55.8945 8.02734 55.6276 7.83203 55.3281C7.64974 55.0156 7.55859 54.6901 7.55859 54.3516C7.55859 53.4271 7.76693 52.5221 8.18359 51.6367C8.60026 50.7383 9.16016 49.8854 9.86328 49.0781C10.5794 48.2708 11.4128 47.5286 12.3633 46.8516C13.3138 46.1745 14.3164 45.5885 15.3711 45.0938C16.4388 44.599 17.5326 44.2148 18.6523 43.9414C19.7852 43.6549 20.8854 43.5117 21.9531 43.5117C23.3464 43.5117 24.5638 43.694 25.6055 44.0586C26.6602 44.4102 27.5391 44.9049 28.2422 45.543C28.9453 46.181 29.4727 46.9427 29.8242 47.8281C30.1758 48.7005 30.3516 49.6641 30.3516 50.7188C30.3516 51.7214 30.1953 52.6979 29.8828 53.6484C29.5703 54.5859 29.1406 55.4779 28.5938 56.3242C28.0599 57.1706 27.4219 57.9648 26.6797 58.707C25.9375 59.4492 25.1302 60.1328 24.2578 60.7578C23.3984 61.3698 22.4935 61.9102 21.543 62.3789C20.5924 62.8477 19.6354 63.2383 18.6719 63.5508C19.2188 63.668 19.7461 63.8633 20.2539 64.1367C20.7747 64.3971 21.2305 64.7292 21.6211 65.1328C22.0247 65.5234 22.3438 65.9857 22.5781 66.5195C22.8125 67.0404 22.9297 67.6133 22.9297 68.2383C22.9297 69.5273 22.7018 70.6667 22.2461 71.6562C21.7904 72.6458 21.1849 73.5052 20.4297 74.2344C19.6745 74.9635 18.8021 75.5755 17.8125 76.0703C16.8229 76.5651 15.7878 76.9622 14.707 77.2617C13.6393 77.5742 12.5651 77.7956 11.4844 77.9258C10.4036 78.056 9.38802 78.1211 8.4375 78.1211C7.94271 78.1211 7.47396 78.1146 7.03125 78.1016C6.58854 78.0885 6.15234 78.0625 5.72266 78.0234C5.29297 77.9974 4.86979 77.9518 4.45312 77.8867C4.02344 77.8216 3.58073 77.737 3.125 77.6328C2.98177 77.5938 2.85807 77.5286 2.75391 77.4375C2.64974 77.3464 2.61068 77.2292 2.63672 77.0859C2.67578 76.8385 2.77995 76.6367 2.94922 76.4805C3.10547 76.3372 3.35938 76.2982 3.71094 76.3633C3.85417 76.3893 4.04948 76.4154 4.29688 76.4414C4.54427 76.4805 4.81771 76.5195 5.11719 76.5586C6.11979 74.293 7.08333 72.0469 8.00781 69.8203C8.94531 67.5938 9.83073 65.4648 10.6641 63.4336C11.5104 61.3893 12.2917 59.4753 13.0078 57.6914C13.737 55.9076 14.388 54.319 14.9609 52.9258C15.5339 51.5326 16.0286 50.3737 16.4453 49.4492C16.862 48.5117 17.181 47.8802 17.4023 47.5547C17.4805 47.4505 17.6367 47.3464 17.8711 47.2422C18.1185 47.138 18.3919 47.0469 18.6914 46.9688C18.9909 46.8906 19.2969 46.832 19.6094 46.793C19.9349 46.7409 20.2148 46.7148 20.4492 46.7148ZM18.7109 68.1211C18.7109 67.4701 18.5938 66.9036 18.3594 66.4219C18.125 65.9401 17.7995 65.5365 17.3828 65.2109C16.9792 64.8854 16.4909 64.6445 15.918 64.4883C15.3581 64.319 14.7461 64.2214 14.082 64.1953C13.2747 66.2656 12.4805 68.349 11.6992 70.4453C10.931 72.5417 10.1628 74.7031 9.39453 76.9297C10.6576 76.8906 11.8555 76.6693 12.9883 76.2656C14.1211 75.875 15.1107 75.3086 15.957 74.5664C16.8034 73.8372 17.474 72.9323 17.9688 71.8516C18.4635 70.7708 18.7109 69.5273 18.7109 68.1211ZM41.543 67.5156C41.2044 68.2969 40.8073 69.0846 40.3516 69.8789C39.9089 70.6602 39.4141 71.3633 38.8672 71.9883C38.3203 72.6133 37.7279 73.1276 37.0898 73.5312C36.4518 73.9219 35.7747 74.1172 35.0586 74.1172C34.5247 74.1172 34.0951 74.0326 33.7695 73.8633C33.457 73.681 33.2161 73.4596 33.0469 73.1992C32.8776 72.9388 32.7604 72.6523 32.6953 72.3398C32.6432 72.0143 32.6172 71.7148 32.6172 71.4414C32.6172 71.1419 32.6562 70.7969 32.7344 70.4062C32.8255 70.0026 32.9753 69.5599 33.1836 69.0781C32.7279 69.625 32.2656 70.1523 31.7969 70.6602C31.3281 71.1549 30.8659 71.5977 30.4102 71.9883C29.9674 72.3789 29.5378 72.6914 29.1211 72.9258C28.7044 73.1602 28.3268 73.2773 27.9883 73.2773C27.7799 73.2773 27.5651 73.2253 27.3438 73.1211C27.1224 73.0039 26.9271 72.8281 26.7578 72.5938C26.5755 72.3594 26.4258 72.0599 26.3086 71.6953C26.1914 71.3307 26.1328 70.901 26.1328 70.4062C26.1328 69.7552 26.2565 69.026 26.5039 68.2188C26.7513 67.4115 27.0703 66.5977 27.4609 65.7773C27.8385 64.944 28.2552 64.1367 28.7109 63.3555C29.1797 62.5612 29.6289 61.8516 30.0586 61.2266C30.4883 60.6016 30.8659 60.0872 31.1914 59.6836C31.5299 59.2799 31.7643 59.0521 31.8945 59C31.9206 58.987 31.9857 58.974 32.0898 58.9609C32.194 58.9479 32.3242 58.9479 32.4805 58.9609C32.6367 58.9609 32.806 58.987 32.9883 59.0391C33.1836 59.0911 33.3789 59.1823 33.5742 59.3125C33.7435 59.4427 33.8607 59.5404 33.9258 59.6055C33.9909 59.6706 34.0365 59.7357 34.0625 59.8008C34.1276 59.918 34.1471 60.0156 34.1211 60.0938C34.1081 60.1719 34.0885 60.237 34.0625 60.2891C34.0234 60.3672 33.8802 60.5755 33.6328 60.9141C33.3984 61.2526 33.1055 61.6758 32.7539 62.1836C32.4154 62.6914 32.0508 63.2643 31.6602 63.9023C31.2826 64.5273 30.9245 65.1654 30.5859 65.8164C30.2604 66.4674 29.987 67.112 29.7656 67.75C29.5573 68.375 29.4531 68.9414 29.4531 69.4492C29.4531 69.7096 29.4987 69.8919 29.5898 69.9961C29.681 70.1003 29.7982 70.1523 29.9414 70.1523C30.2669 70.1523 30.638 70.0091 31.0547 69.7227C31.4844 69.4232 31.9271 69.0326 32.3828 68.5508C32.8385 68.056 33.2943 67.4961 33.75 66.8711C34.2057 66.2331 34.6419 65.569 35.0586 64.8789C36.2565 62.8346 37.168 61.3503 37.793 60.4258C38.418 59.5013 38.8021 59.0391 38.9453 59.0391C38.9974 59.0391 39.0951 59.0846 39.2383 59.1758C39.3945 59.2539 39.5573 59.3516 39.7266 59.4688C39.8958 59.5729 40.0456 59.6771 40.1758 59.7812C40.306 59.8724 40.3711 59.931 40.3711 59.957C40.3711 60.1133 40.2865 60.3346 40.1172 60.6211C39.9609 60.8945 39.7266 61.2982 39.4141 61.832C39.1016 62.3529 38.7174 63.0299 38.2617 63.8633C37.819 64.6836 37.3112 65.7188 36.7383 66.9688C36.569 67.3464 36.3997 67.7305 36.2305 68.1211C36.0612 68.5117 35.9115 68.8958 35.7812 69.2734C35.651 69.638 35.5404 69.9896 35.4492 70.3281C35.3711 70.6667 35.332 70.9727 35.332 71.2461C35.332 71.7018 35.4297 72.0273 35.625 72.2227C35.8333 72.418 36.0482 72.5156 36.2695 72.5156C36.7513 72.5156 37.2005 72.3594 37.6172 72.0469C38.0469 71.7214 38.4505 71.3112 38.8281 70.8164C39.2188 70.3086 39.5898 69.7422 39.9414 69.1172C40.293 68.4922 40.625 67.8672 40.9375 67.2422C41.0417 67.0339 41.1654 66.9297 41.3086 66.9297C41.3867 66.9297 41.4583 66.9557 41.5234 67.0078C41.5885 67.0599 41.6211 67.138 41.6211 67.2422C41.6211 67.2812 41.6146 67.3203 41.6016 67.3594C41.5885 67.3984 41.569 67.4505 41.543 67.5156ZM52.0898 67.5156C51.9076 67.8672 51.6732 68.2773 51.3867 68.7461C51.1003 69.2018 50.7747 69.6771 50.4102 70.1719C50.0456 70.6536 49.6484 71.1354 49.2188 71.6172C48.8021 72.099 48.3659 72.5286 47.9102 72.9062C47.4674 73.2708 47.0117 73.5703 46.543 73.8047C46.0872 74.0391 45.6445 74.1562 45.2148 74.1562C44.9414 74.1562 44.668 74.1172 44.3945 74.0391C44.1341 73.9609 43.8932 73.8438 43.6719 73.6875C43.4635 73.5182 43.2943 73.3099 43.1641 73.0625C43.0339 72.8151 42.9688 72.5156 42.9688 72.1641C42.9688 71.6823 43.0599 71.1745 43.2422 70.6406C43.4375 70.0938 43.6784 69.5469 43.9648 69C44.2643 68.4401 44.5768 67.8932 44.9023 67.3594C45.2409 66.8255 45.5534 66.3177 45.8398 65.8359C46.1393 65.3411 46.3802 64.8919 46.5625 64.4883C46.7578 64.0846 46.8555 63.7331 46.8555 63.4336C46.8555 63.3164 46.7839 63.2253 46.6406 63.1602C46.5104 63.082 46.3281 63.043 46.0938 63.043C45.9766 63.043 45.8203 63.0625 45.625 63.1016C45.4427 63.1406 45.2344 63.1862 45 63.2383C44.7656 63.2904 44.5117 63.349 44.2383 63.4141C43.9779 63.4661 43.7174 63.5117 43.457 63.5508C43.0534 64.5273 42.6497 65.4388 42.2461 66.2852C41.8424 67.1315 41.4974 67.7956 41.2109 68.2773C41.1068 68.4596 41.0221 68.5898 40.957 68.668C40.8789 68.7331 40.7878 68.7656 40.6836 68.7656C40.5013 68.7656 40.4102 68.681 40.4102 68.5117C40.4102 68.4466 40.4232 68.375 40.4492 68.2969C40.4622 68.2057 40.4883 68.1211 40.5273 68.043C40.9049 67.3398 41.263 66.6237 41.6016 65.8945C41.9531 65.1523 42.2917 64.4036 42.6172 63.6484C42.3177 63.6484 42.1029 63.5898 41.9727 63.4727C41.8424 63.3424 41.7773 63.1471 41.7773 62.8867C41.7773 62.6133 41.8424 62.2747 41.9727 61.8711C42.1159 61.4544 42.2917 61.0247 42.5 60.582C42.7083 60.1263 42.9427 59.6771 43.2031 59.2344C43.4635 58.7786 43.724 58.375 43.9844 58.0234C44.2448 57.6589 44.4792 57.3659 44.6875 57.1445C44.9089 56.9102 45.0846 56.793 45.2148 56.793C45.319 56.793 45.4232 56.832 45.5273 56.9102C45.6315 56.9883 45.6836 57.099 45.6836 57.2422C45.6836 57.4375 45.625 57.7435 45.5078 58.1602C45.3906 58.5768 45.2409 59.0586 45.0586 59.6055C45.6055 59.5273 46.0807 59.4688 46.4844 59.4297C46.901 59.3776 47.2201 59.3516 47.4414 59.3516C47.9753 59.3516 48.418 59.4557 48.7695 59.6641C49.1211 59.8594 49.2969 60.1198 49.2969 60.4453C49.2969 60.6406 49.2253 60.9401 49.082 61.3438C48.9388 61.7344 48.763 62.1901 48.5547 62.7109C48.3464 63.2318 48.1185 63.7982 47.8711 64.4102C47.6237 65.0091 47.3958 65.6211 47.1875 66.2461C46.9792 66.8581 46.8034 67.457 46.6602 68.043C46.5169 68.6289 46.4453 69.1628 46.4453 69.6445C46.4453 70.0221 46.5169 70.3411 46.6602 70.6016C46.8164 70.862 47.0508 70.9922 47.3633 70.9922C47.5977 70.9922 47.8581 70.9401 48.1445 70.8359C48.444 70.7188 48.7695 70.5234 49.1211 70.25C49.4727 69.9635 49.8438 69.5794 50.2344 69.0977C50.638 68.6029 51.0547 67.9844 51.4844 67.2422C51.5885 67.0339 51.7122 66.9297 51.8555 66.9297C51.9336 66.9297 52.0052 66.9557 52.0703 67.0078C52.1354 67.0599 52.168 67.138 52.168 67.2422C52.168 67.3203 52.1419 67.4115 52.0898 67.5156ZM54.2773 69C54.2773 69.4557 54.3294 69.8984 54.4336 70.3281C54.5378 70.7578 54.6875 71.1419 54.8828 71.4805C55.0911 71.806 55.3516 72.0729 55.6641 72.2812C55.9896 72.4896 56.3672 72.5938 56.7969 72.5938C57.3958 72.5938 57.9753 72.444 58.5352 72.1445C59.1081 71.832 59.6419 71.4284 60.1367 70.9336C60.6445 70.4388 61.1003 69.8724 61.5039 69.2344C61.9206 68.5833 62.2721 67.9193 62.5586 67.2422C62.5977 67.138 62.6497 67.0599 62.7148 67.0078C62.7799 66.9557 62.8451 66.9297 62.9102 66.9297C63.0013 66.9297 63.0794 66.9557 63.1445 67.0078C63.2096 67.0469 63.2422 67.125 63.2422 67.2422C63.2422 67.2812 63.2357 67.3203 63.2227 67.3594C63.2096 67.3984 63.1901 67.4505 63.1641 67.5156C62.8906 68.1927 62.5 68.9414 61.9922 69.7617C61.4844 70.582 60.8724 71.3503 60.1562 72.0664C59.4531 72.7695 58.6589 73.362 57.7734 73.8438C56.888 74.3255 55.9375 74.5664 54.9219 74.5664C54.3359 74.5664 53.7891 74.4492 53.2812 74.2148C52.7865 73.9935 52.3503 73.6745 51.9727 73.2578C51.5951 72.8411 51.3021 72.3333 51.0938 71.7344C50.8724 71.1224 50.7617 70.4388 50.7617 69.6836C50.7617 68.9284 50.8789 68.1276 51.1133 67.2812C51.3477 66.4219 51.6667 65.5755 52.0703 64.7422C52.487 63.9089 52.9753 63.1081 53.5352 62.3398C54.0951 61.5716 54.7005 60.8945 55.3516 60.3086C56.0026 59.7227 56.6862 59.2604 57.4023 58.9219C58.1185 58.5703 58.8346 58.3945 59.5508 58.3945C60.1628 58.3945 60.612 58.5964 60.8984 59C61.1979 59.4036 61.3477 59.9505 61.3477 60.6406C61.3477 61.1875 61.224 61.7018 60.9766 62.1836C60.7422 62.6654 60.4557 63.082 60.1172 63.4336C59.7917 63.7852 59.4596 64.0651 59.1211 64.2734C58.7956 64.4688 58.5417 64.5664 58.3594 64.5664C58.2031 64.5664 58.125 64.4948 58.125 64.3516C58.125 64.2995 58.1641 64.1953 58.2422 64.0391C58.3594 63.8047 58.4766 63.5508 58.5938 63.2773C58.724 62.9909 58.8346 62.7109 58.9258 62.4375C59.0299 62.1641 59.1146 61.8971 59.1797 61.6367C59.2448 61.3763 59.2773 61.1484 59.2773 60.9531C59.2773 60.5365 59.0885 60.3281 58.7109 60.3281C58.4375 60.3281 58.138 60.4453 57.8125 60.6797C57.5 60.9141 57.1745 61.2331 56.8359 61.6367C56.5104 62.0404 56.1914 62.5221 55.8789 63.082C55.5794 63.6289 55.306 64.2279 55.0586 64.8789C54.8242 65.5169 54.6354 66.1875 54.4922 66.8906C54.349 67.5938 54.2773 68.2969 54.2773 69ZM76.9336 67.5156C76.5951 68.2969 76.1979 69.0846 75.7422 69.8789C75.2995 70.6602 74.8047 71.3633 74.2578 71.9883C73.7109 72.6133 73.1185 73.1276 72.4805 73.5312C71.8424 73.9219 71.1654 74.1172 70.4492 74.1172C69.9154 74.1172 69.4857 74.0326 69.1602 73.8633C68.8477 73.681 68.6068 73.4596 68.4375 73.1992C68.2682 72.9388 68.151 72.6523 68.0859 72.3398C68.0339 72.0143 68.0078 71.7148 68.0078 71.4414C68.0078 71.1419 68.0469 70.7969 68.125 70.4062C68.2161 70.0026 68.3659 69.5599 68.5742 69.0781C68.1185 69.625 67.6562 70.1523 67.1875 70.6602C66.7188 71.1549 66.2565 71.5977 65.8008 71.9883C65.3581 72.3789 64.9284 72.6914 64.5117 72.9258C64.0951 73.1602 63.7174 73.2773 63.3789 73.2773C63.1706 73.2773 62.9557 73.2253 62.7344 73.1211C62.513 73.0039 62.3177 72.8281 62.1484 72.5938C61.9661 72.3594 61.8164 72.0599 61.6992 71.6953C61.582 71.3307 61.5234 70.901 61.5234 70.4062C61.5234 69.7552 61.6471 69.026 61.8945 68.2188C62.1419 67.4115 62.4609 66.5977 62.8516 65.7773C63.2292 64.944 63.6458 64.1367 64.1016 63.3555C64.5703 62.5612 65.0195 61.8516 65.4492 61.2266C65.8789 60.6016 66.2565 60.0872 66.582 59.6836C66.9206 59.2799 67.1549 59.0521 67.2852 59C67.3112 58.987 67.3763 58.974 67.4805 58.9609C67.5846 58.9479 67.7148 58.9479 67.8711 58.9609C68.0273 58.9609 68.1966 58.987 68.3789 59.0391C68.5742 59.0911 68.7695 59.1823 68.9648 59.3125C69.1341 59.4427 69.2513 59.5404 69.3164 59.6055C69.3815 59.6706 69.4271 59.7357 69.4531 59.8008C69.5182 59.918 69.5378 60.0156 69.5117 60.0938C69.4987 60.1719 69.4792 60.237 69.4531 60.2891C69.4141 60.3672 69.2708 60.5755 69.0234 60.9141C68.7891 61.2526 68.4961 61.6758 68.1445 62.1836C67.806 62.6914 67.4414 63.2643 67.0508 63.9023C66.6732 64.5273 66.3151 65.1654 65.9766 65.8164C65.651 66.4674 65.3776 67.112 65.1562 67.75C64.9479 68.375 64.8438 68.9414 64.8438 69.4492C64.8438 69.7096 64.8893 69.8919 64.9805 69.9961C65.0716 70.1003 65.1888 70.1523 65.332 70.1523C65.6576 70.1523 66.0286 70.0091 66.4453 69.7227C66.875 69.4232 67.3177 69.0326 67.7734 68.5508C68.2292 68.056 68.6849 67.4961 69.1406 66.8711C69.5964 66.2331 70.0326 65.569 70.4492 64.8789C71.6471 62.8346 72.5586 61.3503 73.1836 60.4258C73.8086 59.5013 74.1927 59.0391 74.3359 59.0391C74.388 59.0391 74.4857 59.0846 74.6289 59.1758C74.7852 59.2539 74.9479 59.3516 75.1172 59.4688C75.2865 59.5729 75.4362 59.6771 75.5664 59.7812C75.6966 59.8724 75.7617 59.931 75.7617 59.957C75.7617 60.1133 75.6771 60.3346 75.5078 60.6211C75.3516 60.8945 75.1172 61.2982 74.8047 61.832C74.4922 62.3529 74.1081 63.0299 73.6523 63.8633C73.2096 64.6836 72.7018 65.7188 72.1289 66.9688C71.9596 67.3464 71.7904 67.7305 71.6211 68.1211C71.4518 68.5117 71.3021 68.8958 71.1719 69.2734C71.0417 69.638 70.931 69.9896 70.8398 70.3281C70.7617 70.6667 70.7227 70.9727 70.7227 71.2461C70.7227 71.7018 70.8203 72.0273 71.0156 72.2227C71.224 72.418 71.4388 72.5156 71.6602 72.5156C72.1419 72.5156 72.5911 72.3594 73.0078 72.0469C73.4375 71.7214 73.8411 71.3112 74.2188 70.8164C74.6094 70.3086 74.9805 69.7422 75.332 69.1172C75.6836 68.4922 76.0156 67.8672 76.3281 67.2422C76.4323 67.0339 76.556 66.9297 76.6992 66.9297C76.7773 66.9297 76.849 66.9557 76.9141 67.0078C76.9792 67.0599 77.0117 67.138 77.0117 67.2422C77.0117 67.2812 77.0052 67.3203 76.9922 67.3594C76.9792 67.3984 76.9596 67.4505 76.9336 67.5156ZM72.4414 81.168C73.5872 81.168 74.6615 80.9271 75.6641 80.4453C76.6667 79.9635 77.6497 79.1758 78.6133 78.082C79.5768 77.0013 80.5469 75.582 81.5234 73.8242C82.5 72.0534 83.5352 69.8854 84.6289 67.3203C85.7227 64.7552 86.901 61.7604 88.1641 58.3359C89.4401 54.8984 90.8529 50.9727 92.4023 46.5586C92.0247 46.5846 91.6536 46.6237 91.2891 46.6758C90.9245 46.7279 90.5859 46.7734 90.2734 46.8125C89.974 46.8516 89.7201 46.8776 89.5117 46.8906C89.3164 46.8906 89.1992 46.8711 89.1602 46.832C89.082 46.7409 89.0495 46.6562 89.0625 46.5781C89.0755 46.487 89.1927 46.2917 89.4141 45.9922C89.5573 45.7969 89.7721 45.6146 90.0586 45.4453C90.3581 45.276 90.6576 45.1914 90.957 45.1914C91.1263 45.1914 91.5104 45.1198 92.1094 44.9766C92.7214 44.8333 93.457 44.7227 94.3164 44.6445C94.694 44.6445 95.0586 44.6576 95.4102 44.6836C95.7617 44.7096 96.0026 44.8008 96.1328 44.957C96.224 45.0742 96.3151 45.1914 96.4062 45.3086C96.5104 45.4258 96.6081 45.5625 96.6992 45.7188C96.7904 45.862 96.862 46.0247 96.9141 46.207C96.9792 46.3893 97.0117 46.5977 97.0117 46.832L94.5312 67.8086C95.5859 65.2565 96.5951 62.8021 97.5586 60.4453C98.5352 58.0755 99.5052 55.862 100.469 53.8047C101.445 51.7344 102.428 49.8529 103.418 48.1602C104.421 46.4544 105.475 44.9961 106.582 43.7852C107.702 42.5742 108.887 41.6367 110.137 40.9727C111.4 40.2956 112.767 39.957 114.238 39.957C114.577 39.957 114.837 40.0677 115.02 40.2891C115.202 40.4974 115.293 40.7578 115.293 41.0703C115.293 41.2917 115.267 41.5586 115.215 41.8711C115.176 42.1706 115.111 42.4635 115.02 42.75C114.928 43.0234 114.818 43.2643 114.688 43.4727C114.557 43.668 114.408 43.7656 114.238 43.7656C114.095 43.7656 113.978 43.7331 113.887 43.668C113.809 43.6029 113.717 43.5378 113.613 43.4727C113.522 43.3945 113.411 43.3229 113.281 43.2578C113.151 43.1927 112.969 43.1602 112.734 43.1602C111.406 43.1602 110.182 43.5052 109.062 44.1953C107.956 44.8854 106.888 45.901 105.859 47.2422C104.831 48.5703 103.822 50.2044 102.832 52.1445C101.855 54.0846 100.833 56.3047 99.7656 58.8047C98.7109 61.2917 97.5911 64.0456 96.4062 67.0664C95.2344 70.0872 93.9388 73.3424 92.5195 76.832C92.4805 77.0273 92.3698 77.1836 92.1875 77.3008C92.0052 77.431 91.8034 77.5417 91.582 77.6328C91.3607 77.724 91.1393 77.7956 90.918 77.8477C90.7096 77.8997 90.5534 77.9518 90.4492 78.0039C90.3451 78.056 90.2409 78.0625 90.1367 78.0234C90.0456 77.9844 89.9674 77.9193 89.9023 77.8281C89.8372 77.75 89.7852 77.6393 89.7461 77.4961C89.707 77.3659 89.7005 77.2292 89.7266 77.0859C90.0391 74.5469 90.3581 71.7995 90.6836 68.8438C90.8138 67.5807 90.957 66.2135 91.1133 64.7422C91.2695 63.2708 91.4258 61.7214 91.582 60.0938C91.7383 58.4531 91.888 56.7474 92.0312 54.9766C92.1875 53.2057 92.3372 51.4023 92.4805 49.5664C91.4909 52.3789 90.5208 55.1849 89.5703 57.9844C88.6328 60.7839 87.6823 63.4727 86.7188 66.0508C85.7552 68.6159 84.7656 71.0052 83.75 73.2188C82.7344 75.4323 81.6602 77.3529 80.5273 78.9805C79.3815 80.6211 78.1641 81.9036 76.875 82.8281C75.5859 83.7656 74.1927 84.2344 72.6953 84.2344C72.0052 84.2344 71.3607 84.0911 70.7617 83.8047C70.1628 83.5182 69.6419 83.1732 69.1992 82.7695C68.7435 82.3659 68.3854 81.9362 68.125 81.4805C67.8646 81.0378 67.7344 80.6536 67.7344 80.3281C67.7344 79.8203 67.9167 79.5664 68.2812 79.5664C68.4505 79.5664 68.5938 79.6055 68.7109 79.6836C68.8151 79.7617 68.9258 79.8594 69.043 79.9766C69.1602 80.0938 69.2969 80.224 69.4531 80.3672C69.5964 80.5104 69.7982 80.6406 70.0586 80.7578C70.306 80.875 70.625 80.9727 71.0156 81.0508C71.3932 81.1289 71.8685 81.168 72.4414 81.168ZM112.754 67.5156C112.285 68.4792 111.738 69.3906 111.113 70.25C110.488 71.1094 109.811 71.8646 109.082 72.5156C108.366 73.1536 107.604 73.6615 106.797 74.0391C106.003 74.4167 105.202 74.6055 104.395 74.6055C103.809 74.6055 103.288 74.4818 102.832 74.2344C102.376 74 101.992 73.6745 101.68 73.2578C101.367 72.8411 101.133 72.3529 100.977 71.793C100.82 71.2331 100.742 70.6341 100.742 69.9961C100.742 68.9414 100.885 67.9258 101.172 66.9492C101.458 65.9727 101.836 65.0612 102.305 64.2148C102.773 63.3685 103.307 62.5938 103.906 61.8906C104.505 61.1875 105.111 60.5885 105.723 60.0938C106.335 59.5859 106.927 59.1953 107.5 58.9219C108.086 58.6484 108.594 58.5117 109.023 58.5117C109.349 58.5117 109.635 58.5768 109.883 58.707C110.143 58.8372 110.358 59.013 110.527 59.2344C110.697 59.4427 110.82 59.6771 110.898 59.9375C110.99 60.1979 111.035 60.4583 111.035 60.7188C111.035 61.513 110.827 62.3398 110.41 63.1992C109.993 64.0456 109.447 64.8529 108.77 65.6211C108.092 66.3763 107.331 67.0599 106.484 67.6719C105.638 68.2708 104.779 68.7135 103.906 69C103.906 69.4818 103.952 69.9375 104.043 70.3672C104.147 70.7839 104.297 71.1549 104.492 71.4805C104.701 71.793 104.961 72.0469 105.273 72.2422C105.586 72.4245 105.957 72.5156 106.387 72.5156C106.816 72.5156 107.253 72.431 107.695 72.2617C108.138 72.0794 108.594 71.7865 109.062 71.3828C109.544 70.9661 110.039 70.4193 110.547 69.7422C111.055 69.0651 111.589 68.2318 112.148 67.2422C112.279 67.0339 112.396 66.9297 112.5 66.9297C112.591 66.9297 112.669 66.9557 112.734 67.0078C112.799 67.0599 112.832 67.138 112.832 67.2422C112.832 67.3203 112.806 67.4115 112.754 67.5156ZM108.398 60.7578C108.021 60.7578 107.598 60.9792 107.129 61.4219C106.673 61.8646 106.23 62.4375 105.801 63.1406C105.371 63.8307 104.98 64.6055 104.629 65.4648C104.29 66.3112 104.062 67.1445 103.945 67.9648C104.583 67.6654 105.215 67.2943 105.84 66.8516C106.478 66.3958 107.044 65.8945 107.539 65.3477C108.047 64.8008 108.457 64.2214 108.77 63.6094C109.082 62.9844 109.238 62.3529 109.238 61.7148C109.238 61.4544 109.167 61.2331 109.023 61.0508C108.88 60.8555 108.672 60.7578 108.398 60.7578ZM126.855 67.5156C126.4 68.5443 125.918 69.4883 125.41 70.3477C124.902 71.194 124.368 71.9232 123.809 72.5352C123.262 73.1341 122.695 73.6029 122.109 73.9414C121.536 74.2799 120.951 74.4492 120.352 74.4492C119.909 74.4492 119.525 74.3516 119.199 74.1562C118.887 73.9609 118.626 73.7005 118.418 73.375C118.21 73.0365 118.053 72.6458 117.949 72.2031C117.858 71.7474 117.812 71.2656 117.812 70.7578C117.812 70.0547 117.904 69.3385 118.086 68.6094C118.281 67.8802 118.529 67.1576 118.828 66.4414C119.141 65.7253 119.492 65.0221 119.883 64.332C120.273 63.6289 120.677 62.9453 121.094 62.2812C120.573 62.6979 120.007 63.1732 119.395 63.707C118.783 64.2409 118.177 64.7943 117.578 65.3672C116.992 65.9271 116.445 66.4805 115.938 67.0273C115.443 67.5742 115.046 68.056 114.746 68.4727C114.16 69.2539 113.672 69.9831 113.281 70.6602C112.904 71.3242 112.572 71.9036 112.285 72.3984C111.999 72.8802 111.745 73.2643 111.523 73.5508C111.289 73.8242 111.042 73.9609 110.781 73.9609C110.599 73.9609 110.423 73.9154 110.254 73.8242C110.072 73.7201 109.98 73.5247 109.98 73.2383C109.98 72.8216 110.124 72.1771 110.41 71.3047C110.697 70.4323 111.113 69.3841 111.66 68.1602C111.934 67.5352 112.246 66.806 112.598 65.9727C112.949 65.1393 113.333 64.2279 113.75 63.2383C114.18 62.2487 114.642 61.207 115.137 60.1133C115.645 59.0195 116.178 57.8997 116.738 56.7539C117.285 55.6211 117.865 54.5013 118.477 53.3945C119.102 52.2878 119.694 51.2591 120.254 50.3086C120.827 49.3451 121.348 48.4987 121.816 47.7695C122.285 47.0273 122.65 46.4609 122.91 46.0703C123.145 45.7318 123.353 45.4583 123.535 45.25C123.73 45.0286 123.919 44.918 124.102 44.918C124.219 44.918 124.336 45.0091 124.453 45.1914C124.57 45.3737 124.674 45.6016 124.766 45.875C124.857 46.1354 124.928 46.4089 124.98 46.6953C125.033 46.9818 125.059 47.2292 125.059 47.4375C125.059 47.5026 125.052 47.6393 125.039 47.8477C125.026 48.043 124.974 48.3034 124.883 48.6289C124.792 48.9544 124.648 49.332 124.453 49.7617C124.258 50.1784 123.978 50.6341 123.613 51.1289C123.34 51.5195 123.001 52.0078 122.598 52.5938C122.207 53.1797 121.79 53.8307 121.348 54.5469C120.905 55.25 120.449 55.9922 119.98 56.7734C119.525 57.5547 119.082 58.3229 118.652 59.0781C118.34 59.638 118.001 60.25 117.637 60.9141C117.285 61.5781 116.921 62.2552 116.543 62.9453C116.178 63.6224 115.814 64.2995 115.449 64.9766C115.098 65.6536 114.766 66.2852 114.453 66.8711C115.052 66.0898 115.618 65.3997 116.152 64.8008C116.699 64.1888 117.181 63.6745 117.598 63.2578C118.079 62.763 118.529 62.3333 118.945 61.9688C120.326 60.7448 121.419 59.8333 122.227 59.2344C123.034 58.6224 123.646 58.3164 124.062 58.3164C124.219 58.3164 124.395 58.3685 124.59 58.4727C124.785 58.5768 124.961 58.7201 125.117 58.9023C125.286 59.0716 125.423 59.2734 125.527 59.5078C125.645 59.7422 125.703 59.9831 125.703 60.2305C125.703 60.556 125.579 60.9401 125.332 61.3828C125.085 61.8125 124.772 62.3138 124.395 62.8867C124.03 63.4466 123.639 64.0716 123.223 64.7617C122.806 65.4518 122.422 66.2135 122.07 67.0469C121.706 67.8932 121.419 68.7201 121.211 69.5273C121.003 70.3216 120.898 70.9987 120.898 71.5586C120.898 71.9362 120.951 72.2682 121.055 72.5547C121.172 72.8281 121.361 72.9648 121.621 72.9648C121.895 72.9648 122.22 72.8216 122.598 72.5352C122.975 72.2487 123.372 71.8516 123.789 71.3438C124.219 70.8359 124.648 70.237 125.078 69.5469C125.508 68.8438 125.905 68.0755 126.27 67.2422C126.374 67.0339 126.491 66.9297 126.621 66.9297C126.699 66.9297 126.771 66.9557 126.836 67.0078C126.901 67.0599 126.934 67.138 126.934 67.2422C126.934 67.2682 126.927 67.3138 126.914 67.3789C126.901 67.431 126.882 67.4766 126.855 67.5156ZM137.246 54C137.246 54.2865 137.161 54.6315 136.992 55.0352C136.823 55.4258 136.602 55.8034 136.328 56.168C136.068 56.5195 135.775 56.819 135.449 57.0664C135.137 57.3138 134.831 57.4375 134.531 57.4375C134.128 57.4375 133.783 57.3138 133.496 57.0664C133.223 56.819 133.086 56.5586 133.086 56.2852C133.086 56.168 133.125 55.9922 133.203 55.7578C133.294 55.5234 133.405 55.2695 133.535 54.9961C133.678 54.7096 133.841 54.4232 134.023 54.1367C134.219 53.8372 134.421 53.5703 134.629 53.3359C134.85 53.0885 135.065 52.8932 135.273 52.75C135.495 52.5938 135.71 52.5156 135.918 52.5156C136.439 52.5156 136.79 52.6393 136.973 52.8867C137.155 53.1341 137.246 53.5052 137.246 54ZM134.727 67.5156C134.271 68.5443 133.77 69.4883 133.223 70.3477C132.689 71.194 132.135 71.9232 131.562 72.5352C130.99 73.1341 130.397 73.6029 129.785 73.9414C129.186 74.2799 128.594 74.4492 128.008 74.4492C127.565 74.4492 127.188 74.3516 126.875 74.1562C126.562 73.974 126.309 73.7201 126.113 73.3945C125.905 73.069 125.755 72.6914 125.664 72.2617C125.573 71.819 125.527 71.3438 125.527 70.8359C125.527 69.8854 125.658 68.9479 125.918 68.0234C126.178 67.0859 126.51 66.1745 126.914 65.2891C127.331 64.3906 127.799 63.5117 128.32 62.6523C128.841 61.793 129.362 60.9596 129.883 60.1523C130 59.957 130.143 59.7812 130.312 59.625C130.482 59.4688 130.645 59.3906 130.801 59.3906C131.022 59.3906 131.243 59.4297 131.465 59.5078C131.686 59.5859 131.888 59.6901 132.07 59.8203C132.253 59.9375 132.396 60.0742 132.5 60.2305C132.617 60.3737 132.676 60.5234 132.676 60.6797C132.676 60.862 132.565 61.1615 132.344 61.5781C132.122 61.9948 131.842 62.4961 131.504 63.082C131.165 63.6549 130.801 64.293 130.41 64.9961C130.033 65.6992 129.674 66.4284 129.336 67.1836C128.997 67.9388 128.717 68.7005 128.496 69.4688C128.275 70.224 128.164 70.9466 128.164 71.6367C128.164 71.806 128.171 71.9753 128.184 72.1445C128.21 72.3008 128.255 72.444 128.32 72.5742C128.398 72.6914 128.509 72.7891 128.652 72.8672C128.809 72.9323 129.017 72.9648 129.277 72.9648C129.551 72.9648 129.889 72.8021 130.293 72.4766C130.71 72.151 131.139 71.7214 131.582 71.1875C132.038 70.6406 132.487 70.0286 132.93 69.3516C133.385 68.6615 133.783 67.9583 134.121 67.2422C134.225 67.0339 134.342 66.9297 134.473 66.9297C134.564 66.9297 134.642 66.9557 134.707 67.0078C134.772 67.0599 134.805 67.138 134.805 67.2422C134.805 67.3203 134.779 67.4115 134.727 67.5156ZM145.293 67.5156C145.111 67.8672 144.876 68.2773 144.59 68.7461C144.303 69.2018 143.978 69.6771 143.613 70.1719C143.249 70.6536 142.852 71.1354 142.422 71.6172C142.005 72.099 141.569 72.5286 141.113 72.9062C140.671 73.2708 140.215 73.5703 139.746 73.8047C139.29 74.0391 138.848 74.1562 138.418 74.1562C138.145 74.1562 137.871 74.1172 137.598 74.0391C137.337 73.9609 137.096 73.8438 136.875 73.6875C136.667 73.5182 136.497 73.3099 136.367 73.0625C136.237 72.8151 136.172 72.5156 136.172 72.1641C136.172 71.6823 136.263 71.1745 136.445 70.6406C136.641 70.0938 136.882 69.5469 137.168 69C137.467 68.4401 137.78 67.8932 138.105 67.3594C138.444 66.8255 138.757 66.3177 139.043 65.8359C139.342 65.3411 139.583 64.8919 139.766 64.4883C139.961 64.0846 140.059 63.7331 140.059 63.4336C140.059 63.3164 139.987 63.2253 139.844 63.1602C139.714 63.082 139.531 63.043 139.297 63.043C139.18 63.043 139.023 63.0625 138.828 63.1016C138.646 63.1406 138.438 63.1862 138.203 63.2383C137.969 63.2904 137.715 63.349 137.441 63.4141C137.181 63.4661 136.921 63.5117 136.66 63.5508C136.257 64.5273 135.853 65.4388 135.449 66.2852C135.046 67.1315 134.701 67.7956 134.414 68.2773C134.31 68.4596 134.225 68.5898 134.16 68.668C134.082 68.7331 133.991 68.7656 133.887 68.7656C133.704 68.7656 133.613 68.681 133.613 68.5117C133.613 68.4466 133.626 68.375 133.652 68.2969C133.665 68.2057 133.691 68.1211 133.73 68.043C134.108 67.3398 134.466 66.6237 134.805 65.8945C135.156 65.1523 135.495 64.4036 135.82 63.6484C135.521 63.6484 135.306 63.5898 135.176 63.4727C135.046 63.3424 134.98 63.1471 134.98 62.8867C134.98 62.6133 135.046 62.2747 135.176 61.8711C135.319 61.4544 135.495 61.0247 135.703 60.582C135.911 60.1263 136.146 59.6771 136.406 59.2344C136.667 58.7786 136.927 58.375 137.188 58.0234C137.448 57.6589 137.682 57.3659 137.891 57.1445C138.112 56.9102 138.288 56.793 138.418 56.793C138.522 56.793 138.626 56.832 138.73 56.9102C138.835 56.9883 138.887 57.099 138.887 57.2422C138.887 57.4375 138.828 57.7435 138.711 58.1602C138.594 58.5768 138.444 59.0586 138.262 59.6055C138.809 59.5273 139.284 59.4688 139.688 59.4297C140.104 59.3776 140.423 59.3516 140.645 59.3516C141.178 59.3516 141.621 59.4557 141.973 59.6641C142.324 59.8594 142.5 60.1198 142.5 60.4453C142.5 60.6406 142.428 60.9401 142.285 61.3438C142.142 61.7344 141.966 62.1901 141.758 62.7109C141.549 63.2318 141.322 63.7982 141.074 64.4102C140.827 65.0091 140.599 65.6211 140.391 66.2461C140.182 66.8581 140.007 67.457 139.863 68.043C139.72 68.6289 139.648 69.1628 139.648 69.6445C139.648 70.0221 139.72 70.3411 139.863 70.6016C140.02 70.862 140.254 70.9922 140.566 70.9922C140.801 70.9922 141.061 70.9401 141.348 70.8359C141.647 70.7188 141.973 70.5234 142.324 70.25C142.676 69.9635 143.047 69.5794 143.438 69.0977C143.841 68.6029 144.258 67.9844 144.688 67.2422C144.792 67.0339 144.915 66.9297 145.059 66.9297C145.137 66.9297 145.208 66.9557 145.273 67.0078C145.339 67.0599 145.371 67.138 145.371 67.2422C145.371 67.3203 145.345 67.4115 145.293 67.5156ZM64.4375 90.4C63.7975 90.4 63.0775 90.34 62.2775 90.22C61.4775 90.08 60.6475 89.92 59.7875 89.74V109H55.4375V89.14H55.1375C54.2375 89.14 53.4875 89.25 52.8875 89.47C52.2875 89.67 51.8075 89.97 51.4475 90.37C51.0875 90.75 50.8375 91.23 50.6975 91.81C50.5575 92.39 50.4875 93.04 50.4875 93.76C50.4875 94.42 50.5275 94.95 50.6075 95.35C50.7075 95.75 50.8175 96.08 50.9375 96.34C51.0575 96.58 51.1775 96.77 51.2975 96.91C51.4175 97.03 51.5175 97.14 51.5975 97.24C50.3375 97.24 49.3475 96.95 48.6275 96.37C47.9275 95.77 47.5775 94.72 47.5775 93.22C47.5775 92.28 47.7375 91.4 48.0575 90.58C48.3775 89.76 48.8875 89.05 49.5875 88.45C50.3075 87.85 51.2275 87.38 52.3475 87.04C53.4875 86.7 54.8775 86.53 56.5175 86.53C57.3175 86.53 58.0375 86.57 58.6775 86.65C59.3375 86.71 59.9475 86.79 60.5075 86.89C61.0875 86.97 61.6575 87.05 62.2175 87.13C62.7775 87.19 63.3675 87.22 63.9875 87.22C64.8275 87.22 65.5275 87.16 66.0875 87.04C66.6675 86.9 67.1475 86.75 67.5275 86.59C67.5875 86.99 67.6175 87.34 67.6175 87.64C67.6175 88.54 67.3675 89.23 66.8675 89.71C66.3875 90.17 65.5775 90.4 64.4375 90.4ZM78.0772 94V104.2C78.0772 104.96 78.1772 105.5 78.3772 105.82C78.5772 106.12 78.9372 106.27 79.4572 106.27C80.2172 106.27 80.7672 106.01 81.1072 105.49C81.4672 104.97 81.6872 104.35 81.7672 103.63H83.0272C82.8672 104.85 82.5872 105.83 82.1872 106.57C81.7872 107.29 81.3372 107.85 80.8372 108.25C80.3372 108.63 79.8272 108.88 79.3072 109C78.7872 109.12 78.3172 109.18 77.8972 109.18C76.8172 109.18 75.9972 108.93 75.4372 108.43C74.8972 107.93 74.5272 107.23 74.3272 106.33C74.0872 106.97 73.7972 107.48 73.4572 107.86C73.1172 108.22 72.7672 108.5 72.4072 108.7C72.0472 108.9 71.6872 109.03 71.3272 109.09C70.9672 109.15 70.6372 109.18 70.3372 109.18C68.9172 109.18 67.8872 108.76 67.2472 107.92C66.6272 107.08 66.3172 105.95 66.3172 104.53V94H70.6372V104.2C70.6372 104.96 70.7372 105.5 70.9372 105.82C71.1572 106.12 71.4672 106.27 71.8672 106.27C72.4072 106.27 72.8572 106.02 73.2172 105.52C73.5772 105.02 73.7572 104.39 73.7572 103.63V94H78.0772ZM73.1572 89.98C73.1572 89.48 73.3272 89.05 73.6672 88.69C74.0272 88.33 74.4672 88.15 74.9872 88.15C75.4872 88.15 75.9172 88.33 76.2772 88.69C76.6372 89.05 76.8172 89.48 76.8172 89.98C76.8172 90.5 76.6372 90.94 76.2772 91.3C75.9172 91.64 75.4872 91.81 74.9872 91.81C74.4672 91.81 74.0272 91.64 73.6672 91.3C73.3272 90.94 73.1572 90.5 73.1572 89.98ZM67.7572 89.98C67.7572 89.48 67.9272 89.05 68.2672 88.69C68.6272 88.33 69.0672 88.15 69.5872 88.15C70.0872 88.15 70.5172 88.33 70.8772 88.69C71.2372 89.05 71.4172 89.48 71.4172 89.98C71.4172 90.5 71.2372 90.94 70.8772 91.3C70.5172 91.64 70.0872 91.81 69.5872 91.81C69.0672 91.81 68.6272 91.64 68.2672 91.3C67.9272 90.94 67.7572 90.5 67.7572 89.98ZM96.5237 99.94C96.5237 98.74 96.3837 97.89 96.1037 97.39C95.8237 96.87 95.4437 96.61 94.9637 96.61C94.3837 96.61 93.9537 96.89 93.6737 97.45C93.4137 97.99 93.2537 98.63 93.1937 99.37V109H88.8737V98.65C88.8737 98.43 88.8537 98.2 88.8137 97.96C88.7737 97.72 88.7037 97.5 88.6037 97.3C88.5237 97.08 88.3937 96.91 88.2137 96.79C88.0537 96.65 87.8437 96.58 87.5837 96.58C87.0437 96.58 86.6237 96.85 86.3237 97.39C86.0237 97.93 85.8437 98.59 85.7837 99.37V109H81.4637V94H85.7837V95.56C86.2837 94.82 86.8237 94.35 87.4037 94.15C88.0037 93.95 88.5237 93.85 88.9637 93.85C89.7437 93.85 90.4737 94.05 91.1537 94.45C91.8337 94.85 92.3537 95.5 92.7137 96.4C92.9537 95.86 93.2237 95.43 93.5237 95.11C93.8237 94.77 94.1337 94.51 94.4537 94.33C94.7937 94.15 95.1237 94.03 95.4437 93.97C95.7837 93.91 96.1037 93.88 96.4037 93.88C96.9637 93.88 97.4937 93.97 97.9937 94.15C98.5137 94.33 98.9637 94.64 99.3437 95.08C99.7437 95.5 100.054 96.07 100.274 96.79C100.494 97.49 100.604 98.36 100.604 99.4C100.604 99.66 100.594 99.98 100.574 100.36C100.574 100.74 100.564 101.14 100.544 101.56C100.524 101.96 100.504 102.36 100.484 102.76C100.484 103.14 100.484 103.46 100.484 103.72C100.484 104.6 100.594 105.25 100.814 105.67C101.034 106.07 101.494 106.27 102.194 106.27C102.594 106.27 102.874 106.21 103.034 106.09C103.034 107.19 102.804 107.98 102.344 108.46C101.904 108.94 101.234 109.18 100.334 109.18C99.6137 109.18 99.0037 109.04 98.5037 108.76C98.0037 108.46 97.6037 108.06 97.3037 107.56C97.0037 107.04 96.7837 106.45 96.6437 105.79C96.5237 105.11 96.4637 104.38 96.4637 103.6C96.4637 103.4 96.4637 103.14 96.4637 102.82C96.4837 102.48 96.4937 102.13 96.4937 101.77C96.4937 101.41 96.4937 101.06 96.4937 100.72C96.5137 100.38 96.5237 100.12 96.5237 99.94Z" fill="white"/>
</svg>
