<svg width="360" height="75" viewBox="0 0 360 75" fill="none" xmlns="http://www.w3.org/2000/svg">
<path fill-rule="evenodd" clip-rule="evenodd" d="M357.955 0.713751C354.964 1.89713 350.88 3.24856 343.803 5.39673C328.217 10.1277 318.38 14.3016 289.369 28.4922C269.638 38.1435 263.448 40.8988 256.491 43.1261C253.43 44.106 249.243 44.4232 247.703 43.7915L246.861 43.4466L247.016 42.4366C247.356 40.213 248.719 37.4118 252.624 30.9103C258.847 20.551 260.425 16.55 260.131 11.8826C259.407 0.419454 244.813 2.57424 216.739 18.2896C214.695 19.4342 208.522 23.1302 203.022 26.5031C181.51 39.6954 177.312 42.0005 174.732 42.0393L173.425 42.059L173.476 41.0696C173.555 39.5111 174.439 37.0829 177.329 30.4898C183.203 17.084 183.997 11.5742 180.617 7.66028C177.437 3.97685 167.366 5.44941 154.918 11.4175C145.565 15.9019 126.217 27.4596 100.049 44.1943C75.7479 59.735 71.9882 61.9359 71.1123 61.1336C70.8153 60.8615 72.1311 58.3422 77.9548 48.0302C89.2089 28.1032 91.0805 23.7787 91.1073 17.6406C91.1567 6.37795 83.1868 7.80274 59.4091 23.3074C43.7746 33.5021 29.8222 44.9175 11.5669 62.4505C1.93109 71.7051 0 73.7191 0 74.5148C0 75.1203 0.569593 75.1753 0.759675 74.5882C0.911001 74.1218 4.23602 71.041 8.70938 67.2233C10.3261 65.8435 13.4124 63.1082 15.568 61.1449C26.0262 51.6198 44.4418 36.7072 53.0183 30.8178C68.9689 19.8652 80.1718 13.7299 85.0253 13.2889C87.8003 13.0368 88.2833 13.7655 88.1206 17.9605C87.9131 23.311 85.4882 28.8129 75.2442 47.1772C67.359 61.3132 66.8889 62.6539 69.407 63.8245C72.5933 65.3054 76.8163 63.144 102.553 46.8599C149.522 17.1416 167.31 8.11986 176.346 9.43354C180.644 10.0584 179.968 16.5426 174.217 29.8688C169.749 40.2226 169.275 43.0348 171.727 44.6383C175.135 46.8675 179.617 44.8689 205.977 29.3659C228.965 15.8458 241.824 9.9475 250.157 9.10128C255.019 8.60737 256.004 9.40838 255.778 13.6725C255.599 17.0687 254.226 20.1364 248.992 28.8368C241.173 41.8327 240.689 46.4107 246.962 48.0462C253.672 49.7958 260.55 47.3591 291.546 32.2492C308.097 24.1816 313.816 21.5273 326.223 16.1557C330.626 14.2498 336.798 11.4015 339.941 9.82636C343.083 8.25101 348.348 5.66992 351.641 4.09051C354.934 2.51111 358.217 0.93682 358.935 0.592191C360.676 -0.242723 360.235 -0.188127 357.955 0.713751Z" fill="#B9FD50"/>
</svg>
